<mxfile host="Electron" agent="Mozilla/5.0 (Windows NT 10.0; Win64; x64) AppleWebKit/537.36 (KHTML, like Gecko) draw.io/25.0.2 Chrome/128.0.6613.186 Electron/32.2.5 Safari/537.36" version="25.0.2">
  <diagram name="Page-1" id="QP_JZO55w14kYTD2gBKG">
    <mxGraphModel dx="434" dy="288" grid="1" gridSize="10" guides="1" tooltips="1" connect="1" arrows="1" fold="1" page="1" pageScale="1" pageWidth="850" pageHeight="1100" math="0" shadow="0">
      <root>
        <mxCell id="0" />
        <mxCell id="1" parent="0" />
        <mxCell id="_9xG4YUA_AtWVIe6a9Gp-1" value="" style="shape=step;perimeter=stepPerimeter;whiteSpace=wrap;html=1;fixedSize=1;strokeWidth=7;size=12.5;fillColor=none;strokeColor=#00BCD4;" parent="1" vertex="1">
          <mxGeometry x="147.5" y="40" width="112.5" height="80" as="geometry" />
        </mxCell>
        <mxCell id="f9deBPGKOSaazMJdTK_9-4" value="" style="html=1;shadow=0;dashed=0;align=center;verticalAlign=middle;shape=mxgraph.arrows2.uTurnArrow;dy=11;arrowHead=43;dx2=25;flipV=1;flipH=1;fillColor=#00BCD4;strokeColor=none;" parent="1" vertex="1">
          <mxGeometry x="400" y="35" width="80" height="100" as="geometry" />
        </mxCell>
        <mxCell id="f9deBPGKOSaazMJdTK_9-6" value="&lt;font style=&quot;font-size: 32px;&quot;&gt;U2C&lt;/font&gt;" style="text;html=1;align=center;verticalAlign=middle;whiteSpace=wrap;rounded=0;fillColor=none;strokeColor=none;fontColor=#00BCD4;fontStyle=1" parent="1" vertex="1">
          <mxGeometry x="370" y="69" width="60" height="24" as="geometry" />
        </mxCell>
        <mxCell id="f9deBPGKOSaazMJdTK_9-7" value="" style="html=1;shadow=0;dashed=0;align=center;verticalAlign=middle;shape=mxgraph.arrows2.uTurnArrow;dy=11;arrowHead=43;dx2=25;flipV=0;flipH=0;fillColor=#00BCD4;strokeColor=none;" parent="1" vertex="1">
          <mxGeometry x="320" y="25" width="80" height="100" as="geometry" />
        </mxCell>
        <mxCell id="f9deBPGKOSaazMJdTK_9-9" value="&lt;font style=&quot;font-size: 36px;&quot;&gt;INT&lt;/font&gt;" style="text;html=1;align=center;verticalAlign=middle;whiteSpace=wrap;rounded=0;fillColor=none;strokeColor=none;fontColor=#00BCD4;fontStyle=1;fontFamily=Verdana;fontSize=36;" parent="1" vertex="1">
          <mxGeometry x="175" y="50" width="60" height="24" as="geometry" />
        </mxCell>
        <mxCell id="f9deBPGKOSaazMJdTK_9-10" value="&lt;font style=&quot;font-size: 36px;&quot;&gt;EXP&lt;/font&gt;" style="text;html=1;align=center;verticalAlign=middle;whiteSpace=wrap;rounded=0;fillColor=none;strokeColor=none;fontColor=#00BCD4;fontStyle=1;fontFamily=Verdana;fontSize=36;" parent="1" vertex="1">
          <mxGeometry x="175" y="84" width="60" height="24" as="geometry" />
        </mxCell>
        <mxCell id="gr8OqT5ZeZBDQH45Pwud-8" value="+3.3V" style="text;html=1;align=center;verticalAlign=middle;whiteSpace=wrap;rounded=1;fillColor=#e51400;fontColor=#ffffff;strokeColor=#000000;strokeWidth=3;fontSize=14;fontStyle=1" parent="1" vertex="1">
          <mxGeometry x="120" y="340" width="80" height="40" as="geometry" />
        </mxCell>
        <mxCell id="gr8OqT5ZeZBDQH45Pwud-9" value="VUSB" style="text;html=1;align=center;verticalAlign=middle;whiteSpace=wrap;rounded=1;fillColor=#e51400;fontColor=#ffffff;strokeColor=#000000;strokeWidth=3;fontSize=14;fontStyle=1" parent="1" vertex="1">
          <mxGeometry x="200" y="340" width="80" height="40" as="geometry" />
        </mxCell>
        <mxCell id="gr8OqT5ZeZBDQH45Pwud-10" value="GND" style="text;html=1;align=center;verticalAlign=middle;whiteSpace=wrap;rounded=1;strokeColor=#000000;fillColor=#000000;fontColor=#FFFFFF;strokeWidth=3;fontSize=14;fontStyle=1" parent="1" vertex="1">
          <mxGeometry x="120" y="540" width="80" height="40" as="geometry" />
        </mxCell>
        <mxCell id="gr8OqT5ZeZBDQH45Pwud-13" value="GND" style="text;html=1;align=center;verticalAlign=middle;whiteSpace=wrap;rounded=1;strokeColor=#000000;fillColor=#000000;fontColor=#FFFFFF;strokeWidth=3;fontSize=14;fontStyle=1" parent="1" vertex="1">
          <mxGeometry x="200" y="540" width="80" height="40" as="geometry" />
        </mxCell>
        <mxCell id="gr8OqT5ZeZBDQH45Pwud-15" value="I2C2_SDA" style="text;html=1;align=center;verticalAlign=middle;whiteSpace=wrap;rounded=1;fillColor=#60a917;fontColor=#ffffff;strokeColor=#000000;strokeWidth=3;fontSize=14;fontStyle=1" parent="1" vertex="1">
          <mxGeometry x="120" y="580" width="80" height="40" as="geometry" />
        </mxCell>
        <mxCell id="gr8OqT5ZeZBDQH45Pwud-17" value="I2C2_SCL" style="text;html=1;align=center;verticalAlign=middle;whiteSpace=wrap;rounded=1;fillColor=#60a917;strokeColor=#000000;strokeWidth=3;fontSize=14;fontStyle=1;fontColor=#ffffff;" parent="1" vertex="1">
          <mxGeometry x="200" y="580" width="80" height="40" as="geometry" />
        </mxCell>
        <mxCell id="gr8OqT5ZeZBDQH45Pwud-19" value="I2C1_SDA" style="text;html=1;align=center;verticalAlign=middle;whiteSpace=wrap;rounded=1;fillColor=#0050ef;fontColor=#ffffff;strokeColor=#000000;strokeWidth=3;fontSize=14;fontStyle=1" parent="1" vertex="1">
          <mxGeometry x="120" y="620" width="80" height="40" as="geometry" />
        </mxCell>
        <mxCell id="gr8OqT5ZeZBDQH45Pwud-21" value="I2C1_SCL" style="text;html=1;align=center;verticalAlign=middle;whiteSpace=wrap;rounded=1;fillColor=#0050ef;fontColor=#ffffff;strokeColor=#000000;strokeWidth=3;fontSize=14;fontStyle=1" parent="1" vertex="1">
          <mxGeometry x="200" y="620" width="80" height="40" as="geometry" />
        </mxCell>
        <mxCell id="gr8OqT5ZeZBDQH45Pwud-22" value="SPI1_SCK" style="text;html=1;align=center;verticalAlign=middle;whiteSpace=wrap;rounded=1;fillColor=#76608a;fontColor=#ffffff;strokeColor=#000000;strokeWidth=3;fontSize=14;fontStyle=1" parent="1" vertex="1">
          <mxGeometry x="120" y="380" width="80" height="40" as="geometry" />
        </mxCell>
        <mxCell id="gr8OqT5ZeZBDQH45Pwud-23" value="SPI1_MOSI" style="text;html=1;align=center;verticalAlign=middle;whiteSpace=wrap;rounded=1;fillColor=#76608a;fontColor=#ffffff;strokeColor=#000000;strokeWidth=3;fontSize=14;fontStyle=1" parent="1" vertex="1">
          <mxGeometry x="120" y="420" width="80" height="40" as="geometry" />
        </mxCell>
        <mxCell id="gr8OqT5ZeZBDQH45Pwud-24" value="SPI2_SCK" style="text;html=1;align=center;verticalAlign=middle;whiteSpace=wrap;rounded=1;fillColor=#647687;strokeColor=#000000;fontColor=#ffffff;strokeWidth=3;fontSize=14;fontStyle=1" parent="1" vertex="1">
          <mxGeometry x="120" y="460" width="80" height="40" as="geometry" />
        </mxCell>
        <mxCell id="gr8OqT5ZeZBDQH45Pwud-26" value="SPI1_MISO" style="text;html=1;align=center;verticalAlign=middle;whiteSpace=wrap;rounded=1;fillColor=#76608a;fontColor=#ffffff;strokeColor=#000000;strokeWidth=3;fontSize=14;fontStyle=1" parent="1" vertex="1">
          <mxGeometry x="200" y="380" width="80" height="40" as="geometry" />
        </mxCell>
        <mxCell id="gr8OqT5ZeZBDQH45Pwud-27" value="SPI1_CS" style="text;html=1;align=center;verticalAlign=middle;whiteSpace=wrap;rounded=1;fillColor=#76608a;fontColor=#ffffff;strokeColor=#000000;strokeWidth=3;fontSize=14;fontStyle=1" parent="1" vertex="1">
          <mxGeometry x="200" y="420" width="80" height="40" as="geometry" />
        </mxCell>
        <mxCell id="gr8OqT5ZeZBDQH45Pwud-28" value="SPI2_MISO" style="text;html=1;align=center;verticalAlign=middle;whiteSpace=wrap;rounded=1;fillColor=#647687;fontColor=#ffffff;strokeColor=#000000;strokeWidth=3;fontSize=14;fontStyle=1" parent="1" vertex="1">
          <mxGeometry x="200" y="460" width="80" height="40" as="geometry" />
        </mxCell>
        <mxCell id="gr8OqT5ZeZBDQH45Pwud-29" value="SPI2_MOSI" style="text;html=1;align=center;verticalAlign=middle;whiteSpace=wrap;rounded=1;fillColor=#647687;fontColor=#ffffff;strokeColor=#000000;strokeWidth=3;fontSize=14;fontStyle=1" parent="1" vertex="1">
          <mxGeometry x="120" y="500" width="80" height="40" as="geometry" />
        </mxCell>
        <mxCell id="gr8OqT5ZeZBDQH45Pwud-30" value="SPI2_CS" style="text;html=1;align=center;verticalAlign=middle;whiteSpace=wrap;rounded=1;fillColor=#647687;fontColor=#ffffff;strokeColor=#000000;strokeWidth=3;fontSize=14;fontStyle=1" parent="1" vertex="1">
          <mxGeometry x="200" y="500" width="80" height="40" as="geometry" />
        </mxCell>
        <mxCell id="4POj30VMYmPDDlQ5qyxh-1" value="21mm x 10mm" style="text;html=1;align=center;verticalAlign=middle;whiteSpace=wrap;rounded=0;" vertex="1" parent="1">
          <mxGeometry x="365" y="420" width="100" height="30" as="geometry" />
        </mxCell>
        <mxCell id="4POj30VMYmPDDlQ5qyxh-9" value="8x8 mm" style="text;html=1;align=center;verticalAlign=middle;whiteSpace=wrap;rounded=0;" vertex="1" parent="1">
          <mxGeometry x="155" y="160" width="100" height="30" as="geometry" />
        </mxCell>
        <mxCell id="4POj30VMYmPDDlQ5qyxh-19" value="" style="shape=step;perimeter=stepPerimeter;whiteSpace=wrap;html=1;fixedSize=1;strokeWidth=12;size=-50;fillColor=none;strokeColor=#00BCD4;rounded=1;" vertex="1" parent="1">
          <mxGeometry x="153.75" y="210" width="96.25" height="90" as="geometry" />
        </mxCell>
        <mxCell id="4POj30VMYmPDDlQ5qyxh-20" value="&lt;font&gt;int&lt;/font&gt;" style="text;html=1;align=center;verticalAlign=middle;whiteSpace=wrap;rounded=0;fillColor=none;strokeColor=none;fontColor=#00BCD4;fontStyle=1;fontFamily=Helvetica;fontSize=47;" vertex="1" parent="1">
          <mxGeometry x="172" y="226" width="60" height="24" as="geometry" />
        </mxCell>
        <mxCell id="4POj30VMYmPDDlQ5qyxh-21" value="exp" style="text;html=1;align=center;verticalAlign=middle;whiteSpace=wrap;rounded=0;fillColor=none;strokeColor=none;fontColor=#00BCD4;fontStyle=1;fontFamily=Helvetica;fontSize=47;" vertex="1" parent="1">
          <mxGeometry x="172" y="258" width="60" height="24" as="geometry" />
        </mxCell>
        <mxCell id="4POj30VMYmPDDlQ5qyxh-39" value="export with 400% and border width 2" style="text;html=1;align=center;verticalAlign=middle;whiteSpace=wrap;rounded=0;" vertex="1" parent="1">
          <mxGeometry x="340" y="460" width="150" height="30" as="geometry" />
        </mxCell>
        <mxCell id="4POj30VMYmPDDlQ5qyxh-45" value="" style="shape=step;perimeter=stepPerimeter;whiteSpace=wrap;html=1;fixedSize=1;strokeWidth=12;size=-50;fillColor=none;strokeColor=#00BCD4;rounded=1;" vertex="1" parent="1">
          <mxGeometry x="280" y="210" width="100" height="90" as="geometry" />
        </mxCell>
        <mxCell id="4POj30VMYmPDDlQ5qyxh-46" value="&lt;font&gt;int&lt;/font&gt;" style="text;html=1;align=center;verticalAlign=middle;whiteSpace=wrap;rounded=0;fillColor=none;strokeColor=none;fontColor=#00BCD4;fontStyle=1;fontFamily=Helvetica;fontSize=47;" vertex="1" parent="1">
          <mxGeometry x="300" y="226" width="60" height="24" as="geometry" />
        </mxCell>
        <mxCell id="4POj30VMYmPDDlQ5qyxh-47" value="exp" style="text;html=1;align=center;verticalAlign=middle;whiteSpace=wrap;rounded=0;fillColor=none;strokeColor=none;fontColor=#00BCD4;fontStyle=1;fontFamily=Helvetica;fontSize=47;" vertex="1" parent="1">
          <mxGeometry x="300" y="258" width="60" height="24" as="geometry" />
        </mxCell>
      </root>
    </mxGraphModel>
  </diagram>
</mxfile>
